<?xml version="1.0" encoding="utf-8"?>
<!-- Generator: Adobe Illustrator 26.5.0, SVG Export Plug-In . SVG Version: 6.00 Build 0)  -->
<svg version="1.1" id="Layer_1" xmlns="http://www.w3.org/2000/svg" xmlns:xlink="http://www.w3.org/1999/xlink" x="0px" y="0px"
	 viewBox="0 0 624 409.6" style="enable-background:new 0 0 624 409.6;" xml:space="preserve">
<style type="text/css">
	.st0{fill:#19B24B;}
</style>
<path class="st0" d="M339.8,293.2c0,7.2-27.2,13-60.9,13c-34,0-61.2-5.9-61.2-13c0-7.2,27.2-13,61.2-13
	C312.5,280.2,339.8,286,339.8,293.2z M624,0v409.6H0V0H624z M556.3,292.4c0-21.4-119.9-38.8-267.9-38.8
	c-147.8,0-267.7,17.3-267.7,38.8c0,21.4,119.9,38.8,267.7,38.8C436.4,331.2,556.3,313.9,556.3,292.4z M495.8,76.3h-51.4H380
	c-30.7,37-36.5,44.1-36.5,44.1s-32.8,40.4-36.7,49.4c-0.2-9.1-14.3-49.9-14.3-49.9s-3.5-10.2-14.5-43.6h-39.7H142H69.3l-7.3,31.4
	h54.7h13c35.2,0,56.7,14.5,50.7,40.3c-6.5,28.1-37.2,40-69.9,40H98.3l15.7-68.6H59.3L36.1,219.7h77.7c58.4,0,113.9-31.4,123.9-71.7
	c1.7-7.4,1.5-26-3-37c0-0.3-0.3-0.8-0.5-1.5c-0.2-0.3-0.5-2,0.5-2.3c0.5-0.3,1.5,0.8,1.5,1c0,0,0.5,1.3,1,2.3l49.4,142.6L412.4,108
	l53.2-0.3h13c35.2,0,56.9,14.5,50.9,40.3c-6.5,28.1-37.4,40-70.2,40h-12.5l16-68.6h-54.7L385,219.7h77.7
	c58.4,0,114.4-31.4,123.6-71.7C595.7,107.7,554.8,76.3,495.8,76.3z"/>
</svg>
